# Aspose.3D Wavefront OBJ Exporter
# Copyright 2004-2023 Aspose Pty Ltd.
# File created: 03/23/2023 14:20:04

mtllib material.lib

#
# object Object_2
#

v 0.5 -2.906601499437012E-16 1.30901694297790528
v 0.80901700258255008 0.80901700258254976 0.80901700258255024
v -0.5 -2.906601499437012E-16 1.30901694297790528
v 0 1.30901694297790528 0.50000000000000032
v -0.80901700258255008 0.80901700258254976 0.80901700258255024
v -0.80901700258255008 -0.80901700258255024 0.80901700258254976
v 0 -1.30901694297790528 0.49999999999999976
v 0.80901700258255008 -0.80901700258255024 0.80901700258254976
v 1.30901694297790528 -0.5 -1.1102230246251565E-16
v 1.30901694297790528 0.5 1.1102230246251565E-16
v 0 -1.30901694297790528 -0.50000000000000032
v 0.80901700258255008 -0.80901700258254976 -0.80901700258255024
v 0 1.30901694297790528 -0.49999999999999976
v 0.80901700258255008 0.80901700258255024 -0.80901700258254976
v -0.5 2.906601499437012E-16 -1.30901694297790528
v 0.5 2.906601499437012E-16 -1.30901694297790528
v -0.80901700258255008 -0.80901700258254976 -0.80901700258255024
v -1.30901694297790528 -0.5 -1.1102230246251565E-16
v -1.30901694297790528 0.5 1.1102230246251565E-16
v -0.80901700258255008 0.80901700258255024 -0.80901700258254976
v -0.80901700258255008 0.80901700258255024 -0.80901700258254976
v -0.80901700258255008 0.80901700258255024 -0.80901700258254976
v -0.80901700258255008 -0.80901700258254976 -0.80901700258255024
v -0.80901700258255008 -0.80901700258254976 -0.80901700258255024
v 0.5 2.906601499437012E-16 -1.30901694297790528
v 0.5 2.906601499437012E-16 -1.30901694297790528
v -0.5 2.906601499437012E-16 -1.30901694297790528
v -0.5 2.906601499437012E-16 -1.30901694297790528
v 0.80901700258255008 0.80901700258255024 -0.80901700258254976
v 0.80901700258255008 0.80901700258255024 -0.80901700258254976
v 0.80901700258255008 -0.80901700258254976 -0.80901700258255024
v 0.80901700258255008 -0.80901700258254976 -0.80901700258255024
v -1.30901694297790528 0.5 1.1102230246251565E-16
v -1.30901694297790528 0.5 1.1102230246251565E-16
v -1.30901694297790528 -0.5 -1.1102230246251565E-16
v -1.30901694297790528 -0.5 -1.1102230246251565E-16
v 0 1.30901694297790528 0.50000000000000032
v 0 1.30901694297790528 0.50000000000000032
v 0 -1.30901694297790528 0.49999999999999976
v 0 -1.30901694297790528 0.49999999999999976
v 0.5 -2.906601499437012E-16 1.30901694297790528
v 0.5 -2.906601499437012E-16 1.30901694297790528
v -0.80901700258255008 0.80901700258254976 0.80901700258255024
v -0.80901700258255008 0.80901700258254976 0.80901700258255024
v -0.80901700258255008 -0.80901700258255024 0.80901700258254976
v -0.80901700258255008 -0.80901700258255024 0.80901700258254976
v -0.5 -2.906601499437012E-16 1.30901694297790528
v -0.5 -2.906601499437012E-16 1.30901694297790528
v 0.80901700258255008 0.80901700258254976 0.80901700258255024
v 0.80901700258255008 0.80901700258254976 0.80901700258255024
v 0.80901700258255008 -0.80901700258255024 0.80901700258254976
v 0.80901700258255008 -0.80901700258255024 0.80901700258254976
v 1.30901694297790528 -0.5 -1.1102230246251565E-16
v 1.30901694297790528 -0.5 -1.1102230246251565E-16
v 1.30901694297790528 0.5 1.1102230246251565E-16
v 1.30901694297790528 0.5 1.1102230246251565E-16
v 0 1.30901694297790528 -0.49999999999999976
v 0 1.30901694297790528 -0.49999999999999976
v 0 -1.30901694297790528 -0.50000000000000032
v 0 -1.30901694297790528 -0.50000000000000032
# 60 vertices

vn 0 0.52573108673095704 0.85065084695816048
vn -2.393858622440348E-08 0.52573108673095704 0.85065078735351584
vn 8.661062089743155E-09 0.52573108673095704 0.85065078735351584
vn 1.196929311220174E-08 0.52573108673095704 0.85065078735351584
vn 9.400805822679104E-08 0.52573108673095704 0.85065078735351584
vn 6.26720364493849E-08 -0.52573108673095712 0.85065084695816048
vn -8.661062089743155E-09 -0.52573108673095712 0.85065078735351568
vn -9.400805822679104E-08 -0.52573108673095712 0.85065078735351568
vn 0.85065078735351568 2.3938586113381177E-08 0.52573108673095704
vn 0.85065078735351568 -2.3938586335425782E-08 0.52573108673095704
vn 0.52573108673095704 -0.85065078735351568 2.3938586113381177E-08
vn 0.52573108673095704 -0.85065084695816048 6.26720363383626E-08
vn 0.52573108673095704 0.85065078735351568 8.661062200765457E-09
vn 0.52573108673095704 0.85065078735351568 9.400805833781334E-08
vn 8.661062089743155E-09 -0.52573108673095704 -0.85065078735351584
vn 0 -0.52573108673095704 -0.85065084695816048
vn 9.400805822679104E-08 -0.52573108673095704 -0.85065078735351584
vn -0.85065078735351568 2.3938586335425782E-08 -0.52573108673095704
vn -0.85065078735351568 -2.3938586113381177E-08 -0.52573108673095704
vn -0.85065084695816048 -6.26720363383626E-08 -0.52573108673095704
vn 6.26720364493849E-08 0.52573108673095712 -0.85065084695816048
vn -0.52573108673095704 0.85065084695816048 6.267203656040721E-08
vn -0.85065084695816048 6.267203656040721E-08 -0.52573108673095704
vn -0.52573108673095704 -0.85065078735351568 9.400805811576873E-08
vn 0.85065078735351568 -1.1969293001179437E-08 -0.52573108673095704
vn -3.590788111296206E-08 0.52573108673095712 -0.85065078735351568
vn -0.85065078735351568 1.1102230246251565E-16 -0.52573108673095704
vn 2.393858622440348E-08 0.52573108673095712 -0.85065078735351568
vn 0.85065078735351568 -9.400805811576873E-08 -0.52573108673095704
vn -9.400805822679104E-08 0.52573108673095712 -0.85065078735351568
vn -2.393858622440348E-08 -0.52573108673095704 -0.85065078735351584
vn 0.85065078735351568 2.3938586335425782E-08 -0.52573108673095704
vn -0.85065078735351568 -8.661062200765457E-09 0.52573108673095704
vn -0.52573108673095704 0.85065078735351568 -8.661061978720852E-09
vn -0.52573108673095704 -0.85065078735351568 1.1969293001179437E-08
vn -0.85065084695816048 -1.1102230246251565E-16 0.52573108673095704
vn 0.52573108673095704 0.85065084695816048 1.1102230246251565E-16
vn -0.52573108673095704 0.85065078735351568 -3.5907881001939757E-08
vn 0.52573108673095704 -0.85065078735351568 -3.590788122398436E-08
vn -0.52573108673095704 -0.85065084695816048 -1.1102230246251565E-16
vn -3.590788111296206E-08 -0.52573108673095712 0.85065078735351568
vn 0.85065078735351568 -1.1102230246251565E-16 0.52573108673095704
vn -0.85065078735351568 -9.400805833781334E-08 0.52573108673095704
vn -0.52573108673095704 0.85065078735351568 -9.400805811576873E-08
vn -0.52573108673095704 -0.85065078735351568 -2.3938586335425782E-08
vn -0.85065078735351568 2.3938586113381177E-08 0.52573108673095704
vn 2.393858622440348E-08 -0.52573108673095712 0.85065078735351568
vn -0.85065078735351568 -1.1969293223224042E-08 0.52573108673095704
vn 0.85065084695816048 -6.267203656040721E-08 0.52573108673095704
vn 0.52573108673095704 0.85065078735351568 -2.3938586113381177E-08
vn 0.85065084695816048 6.26720363383626E-08 0.52573108673095704
vn 0.52573108673095704 -0.85065078735351568 -9.400805833781334E-08
vn 0.52573108673095704 -0.85065078735351568 -8.661062200765457E-09
vn 0.85065078735351568 1.1102230246251565E-16 -0.52573108673095704
vn 0.52573108673095704 0.85065078735351568 1.1969293223224042E-08
vn 0.85065078735351568 -8.661061978720852E-09 -0.52573108673095704
vn -8.661062089743155E-09 0.52573108673095712 -0.85065078735351568
vn -0.52573108673095704 0.85065078735351568 2.3938586335425782E-08
vn 1.196929311220174E-08 -0.52573108673095704 -0.85065078735351584
vn -0.52573108673095704 -0.85065078735351568 8.661061978720852E-09
# 60 vertex normals

g Object_2
usemtl Scene_-_Root
s 1
f 1//1 2//2 3//3
f 2//2 4//4 3//3
f 4//4 5//5 3//3
f 47//47 6//6 7//7
f 7//7 8//8 41//41
f 41//41 47//47 7//7
f 51//51 9//9 42//42
f 9//9 10//10 42//42
f 10//10 49//49 42//42
f 53//53 52//52 39//39
f 39//39 11//11 53//53
f 11//11 12//12 53//53
f 13//13 37//37 50//50
f 50//50 55//55 13//13
f 55//55 14//14 13//13
f 15//15 16//16 31//31
f 31//31 59//59 15//15
f 59//59 17//17 15//15
f 18//18 19//19 27//27
f 18//18 27//27 23//23
f 19//19 20//20 27//27
f 60//60 40//40 45//45
f 45//45 35//35 60//60
f 35//35 24//24 60//60
f 48//48 43//43 33//33
f 33//33 36//36 46//46
f 46//46 48//48 33//33
f 32//32 25//25 56//56
f 32//32 56//56 54//54
f 25//25 29//29 56//56
f 57//57 30//30 26//26
f 26//26 28//28 57//57
f 28//28 21//21 57//57
f 34//34 44//44 38//38
f 38//38 58//58 34//34
f 58//58 22//22 34//34
#36 polygons

